<?xml version="1.0" standalone="no"?>
<!DOCTYPE svg PUBLIC "-//W3C//DTD SVG 20010904//EN"
 "http://www.w3.org/TR/2001/REC-SVG-20010904/DTD/svg10.dtd">
<svg version="1.0" xmlns="http://www.w3.org/2000/svg"
 width="700.000000pt" height="700.000000pt" viewBox="0 0 700.000000 700.000000"
 preserveAspectRatio="xMidYMid meet">
<metadata>
Created by potrace 1.14, written by Peter Selinger 2001-2017
</metadata>
<g transform="translate(0.000000,700.000000) scale(0.100000,-0.100000)"
fill="#000000" stroke="none">
<path d="M1831 6225 c-10 -16 -193 -320 -406 -675 -213 -355 -396 -658 -406
-675 -10 -16 -28 -46 -39 -65 -11 -19 -25 -42 -30 -50 -17 -27 -142 -234 -163
-270 -11 -19 -57 -97 -103 -173 -46 -76 -84 -142 -84 -148 0 -5 -4 -9 -10 -9
-5 0 -10 -4 -10 -9 0 -6 -18 -39 -41 -75 -22 -36 -39 -70 -37 -75 1 -5 37 -46
79 -92 42 -46 145 -160 229 -254 84 -93 167 -186 184 -205 103 -114 249 -276
312 -345 40 -44 81 -90 91 -102 15 -17 139 -154 178 -197 6 -6 93 -103 195
-216 101 -113 187 -207 190 -210 3 -3 43 -48 90 -100 47 -52 101 -112 120
-134 19 -21 40 -44 45 -50 6 -6 30 -34 55 -61 162 -180 217 -241 235 -260 11
-12 38 -41 59 -66 32 -36 173 -192 211 -233 6 -6 46 -51 90 -100 44 -50 87
-97 95 -106 24 -26 88 -97 180 -200 47 -52 87 -97 90 -100 3 -3 65 -71 138
-152 l133 -147 236 262 c341 379 386 429 403 447 8 9 33 36 54 60 22 25 76 86
121 135 45 50 106 117 135 150 67 74 120 133 140 155 8 8 55 60 104 115 49 55
92 102 95 105 3 3 42 45 86 95 44 49 98 110 120 134 22 24 45 49 50 55 78 87
189 211 221 246 45 49 74 80 119 131 47 53 398 443 410 455 5 6 37 41 70 79
33 37 71 80 85 94 14 14 104 114 200 221 230 257 229 256 294 325 31 33 54 67
52 75 -3 12 -1330 2226 -1342 2239 -3 3 -747 5 -1655 5 l-1650 1 -18 -30z
m3409 -1102 c206 -342 380 -630 385 -640 6 -10 63 -106 128 -213 64 -108 117
-200 117 -205 0 -6 -24 -36 -53 -67 -45 -49 -118 -129 -192 -212 -11 -12 -55
-61 -99 -109 -43 -48 -86 -96 -96 -107 -10 -11 -51 -57 -92 -103 -41 -45 -180
-199 -309 -342 -128 -143 -238 -265 -244 -271 -30 -33 -91 -100 -170 -189 -49
-55 -92 -102 -95 -105 -3 -3 -43 -48 -90 -100 -47 -52 -104 -115 -126 -140
-23 -25 -110 -121 -194 -215 -84 -93 -187 -208 -230 -255 -42 -47 -125 -139
-185 -205 -191 -212 -195 -216 -208 -202 -7 6 -50 55 -97 107 -47 52 -87 97
-90 100 -3 3 -109 120 -235 260 -353 394 -378 422 -405 450 -14 14 -56 62 -95
106 -38 43 -79 88 -90 99 -11 11 -38 41 -59 65 -47 53 -185 207 -206 230 -8 9
-51 56 -95 105 -44 50 -101 112 -126 140 -25 27 -90 100 -145 160 -54 61 -113
126 -131 145 -17 19 -40 44 -50 56 -14 17 -132 147 -178 198 -6 6 -73 81 -150
166 -77 85 -142 157 -145 160 -3 3 -18 20 -34 37 l-29 33 18 40 c10 22 22 40
27 40 4 0 8 5 8 10 0 6 15 35 33 64 17 28 37 61 43 72 7 10 135 223 285 471
149 249 277 462 283 473 18 31 246 410 281 466 l32 50 1364 0 1364 0 375 -623z"/>
<path d="M2792 4817 l-133 -134 215 -215 c119 -119 216 -217 216 -220 0 -2
-80 -4 -177 -4 l-178 0 -3 -192 -2 -192 290 0 290 0 0 -115 c0 -112 -1 -115
-22 -116 -13 0 -139 0 -280 -1 -186 0 -258 -3 -259 -12 -4 -45 -3 -359 1 -366
3 -4 124 -7 270 -8 146 0 271 -1 278 -1 9 -1 12 -62 12 -271 l0 -270 190 0
190 0 2 272 3 272 280 0 280 1 0 190 0 190 -245 2 c-135 1 -262 2 -282 3 l-38
0 0 115 0 115 128 1 c70 0 200 0 290 -1 l162 0 -2 192 -3 193 -177 -1 c-98 0
-178 1 -178 3 0 1 97 100 216 219 l216 217 -135 135 -135 135 -285 -285 -286
-286 -284 284 c-156 156 -286 284 -288 284 -2 0 -64 -60 -137 -133z"/>
</g>
</svg>
