<?xml version="1.0" standalone="no"?>
<!DOCTYPE svg PUBLIC "-//W3C//DTD SVG 20010904//EN"
 "http://www.w3.org/TR/2001/REC-SVG-20010904/DTD/svg10.dtd">
<svg version="1.0" xmlns="http://www.w3.org/2000/svg"
 width="700.000000pt" height="700.000000pt" viewBox="0 0 700.000000 700.000000"
 preserveAspectRatio="xMidYMid meet">
<metadata>
Created by potrace 1.14, written by Peter Selinger 2001-2017
</metadata>
<g transform="translate(0.000000,700.000000) scale(0.100000,-0.100000)"
fill="#000000" stroke="none">
<path d="M3298 6705 c-2 -2 -39 -6 -83 -10 -44 -4 -91 -8 -105 -10 -14 -2 -45
-6 -70 -10 -48 -6 -138 -21 -180 -31 -14 -3 -36 -7 -50 -10 -260 -52 -644
-199 -889 -340 -896 -514 -1495 -1416 -1607 -2419 -3 -33 -10 -91 -14 -130 -8
-80 -5 -487 4 -555 4 -25 13 -92 22 -150 19 -141 20 -147 55 -290 217 -911
834 -1689 1674 -2113 204 -104 330 -152 595 -232 67 -20 268 -63 325 -70 28
-3 59 -8 71 -10 125 -27 536 -41 699 -24 244 24 323 37 500 79 789 187 1474
667 1931 1351 46 70 84 130 84 134 0 4 9 19 20 35 19 26 130 246 163 320 50
115 139 368 152 430 2 8 10 42 19 75 29 114 55 260 71 395 3 30 8 69 11 85 9
53 12 468 4 540 -4 39 -11 101 -15 140 -4 38 -13 105 -21 150 -8 44 -17 91
-19 105 -11 67 -68 277 -103 380 -275 807 -839 1458 -1594 1843 -325 166 -723
286 -1068 323 -30 3 -68 7 -85 10 -36 5 -492 14 -497 9z m395 -149 c106 -6
268 -25 347 -41 14 -3 41 -8 60 -11 72 -12 299 -74 410 -112 359 -125 715
-333 1005 -587 218 -191 285 -297 290 -463 5 -130 -41 -247 -131 -340 -102
-104 -223 -153 -361 -147 -129 7 -214 47 -340 162 -104 96 -119 108 -183 158
-219 169 -505 308 -769 374 -76 20 -219 44 -321 57 -65 7 -352 8 -395 1 -16
-3 -54 -9 -84 -12 -30 -4 -63 -9 -75 -11 -235 -44 -377 -90 -571 -185 -565
-274 -979 -787 -1129 -1400 -82 -337 -80 -701 6 -1019 11 -41 21 -82 23 -90
10 -46 74 -209 116 -298 248 -518 697 -916 1239 -1096 75 -25 147 -47 160 -49
14 -3 59 -12 100 -20 41 -9 96 -18 123 -21 26 -3 68 -9 93 -12 64 -8 283 -8
379 0 610 51 1184 382 1545 891 185 260 324 615 365 930 14 113 17 146 17 270
1 176 -13 318 -47 465 -3 14 -8 38 -11 54 -11 63 -97 304 -143 400 -41 88 -96
183 -167 291 -10 16 -13 26 -6 21 21 -13 167 -8 237 9 68 15 162 57 218 97
140 98 243 277 255 441 l5 68 49 -68 c237 -324 428 -773 503 -1178 10 -49 18
-97 20 -105 30 -161 44 -479 30 -690 -6 -98 -30 -293 -40 -330 -2 -8 -7 -31
-10 -50 -3 -19 -11 -55 -16 -80 -6 -25 -12 -52 -14 -62 -2 -9 -20 -72 -40
-140 -274 -929 -986 -1682 -1900 -2010 -178 -64 -393 -119 -560 -143 -233 -34
-507 -46 -690 -30 -85 7 -155 15 -190 20 -16 3 -46 7 -65 10 -137 19 -286 54
-440 102 -1000 309 -1782 1124 -2050 2138 -16 60 -32 126 -35 145 -3 19 -8 42
-10 50 -11 37 -31 174 -40 265 -3 33 -8 80 -10 105 -6 55 -6 368 -1 430 12
142 17 177 41 325 57 348 204 738 395 1050 347 568 862 1007 1470 1253 103 41
307 110 383 128 9 2 25 6 35 8 49 12 231 48 257 51 17 3 62 9 102 15 39 5 125
13 190 16 65 4 119 7 120 8 3 2 148 -2 256 -8z m107 -1110 c773 -122 1409
-695 1604 -1447 75 -290 83 -636 21 -909 -4 -14 -9 -38 -11 -55 -24 -135 -161
-452 -262 -605 -264 -403 -666 -699 -1120 -824 -99 -28 -179 -45 -237 -52 -22
-2 -56 -7 -75 -10 -60 -10 -331 -12 -410 -3 -376 42 -683 161 -978 377 -100
72 -122 92 -232 202 -309 309 -511 736 -558 1175 -17 158 -7 404 23 570 96
532 438 1024 915 1318 231 142 541 247 815 275 121 13 388 6 505 -12z"/>
<path d="M3455 4579 c-197 -105 -503 -274 -517 -287 -26 -22 -23 -76 5 -102
31 -30 62 -22 177 40 52 29 133 73 180 98 47 25 89 49 95 53 32 30 33 17 33
-908 0 -505 1 -944 1 -976 1 -53 3 -59 32 -76 25 -15 37 -17 60 -9 16 6 34 19
40 30 8 14 11 341 11 1065 0 1008 0 1046 -18 1063 -31 29 -56 31 -99 9z"/>
</g>
</svg>
